<svg width="25" height="25" viewBox="0 0 25 25" fill="none" xmlns="http://www.w3.org/2000/svg">
<g clip-path="url(#clip0_140_317)">
<path d="M7.43848 5.98538C7.43821 6.51581 7.22724 7.02441 6.85198 7.3993C6.47672 7.77418 5.96791 7.98464 5.43748 7.98438C4.90704 7.98411 4.39844 7.77314 4.02356 7.39788C3.64867 7.02262 3.43821 6.51381 3.43848 5.98338C3.43874 5.45294 3.64971 4.94434 4.02497 4.56945C4.40023 4.19457 4.90904 3.98411 5.43948 3.98438C5.96991 3.98464 6.47851 4.19561 6.8534 4.57087C7.22828 4.94613 7.43874 5.45494 7.43848 5.98538ZM7.49848 9.46537H3.49848V21.9854H7.49848V9.46537ZM13.8185 9.46537H9.83848V21.9854H13.7785V15.4154C13.7785 11.7554 18.5485 11.4154 18.5485 15.4154V21.9854H22.4985V14.0554C22.4985 7.88538 15.4385 8.11538 13.7785 11.1454L13.8185 9.46537Z" fill="white"/>
</g>
<defs>
<clipPath id="clip0_140_317">
<rect width="24" height="24" fill="white" transform="translate(0.498047 0.992188)"/>
</clipPath>
</defs>
</svg>
