<svg width="57" height="57" viewBox="0 0 57 57" fill="none" xmlns="http://www.w3.org/2000/svg">
<rect x="0.5" y="0.996094" width="56" height="56" rx="28" fill="#FAEFCB"/>
<g clip-path="url(#clip0_140_288)">
<path d="M21.085 34.3144C20.055 33.2204 19.502 31.9934 19.502 30.0044C19.502 26.5044 21.959 23.3674 25.532 21.8164L26.425 23.1944C23.09 24.9984 22.438 27.3394 22.178 28.8154C22.715 28.5374 23.418 28.4404 24.107 28.5044C25.911 28.6714 27.333 30.1524 27.333 31.9934C27.333 32.9217 26.9642 33.8119 26.3078 34.4683C25.6514 35.1247 24.7612 35.4934 23.833 35.4934C22.76 35.4934 21.734 35.0034 21.085 34.3144ZM31.085 34.3144C30.055 33.2204 29.502 31.9934 29.502 30.0044C29.502 26.5044 31.959 23.3674 35.532 21.8164L36.425 23.1944C33.09 24.9984 32.438 27.3394 32.178 28.8154C32.715 28.5374 33.418 28.4404 34.107 28.5044C35.911 28.6714 37.333 30.1524 37.333 31.9934C37.333 32.9217 36.9642 33.8119 36.3078 34.4683C35.6514 35.1247 34.7612 35.4934 33.833 35.4934C32.76 35.4934 31.734 35.0034 31.085 34.3144Z" fill="black"/>
</g>
<defs>
<clipPath id="clip0_140_288">
<rect width="24" height="24" fill="white" transform="translate(16.5 16.9961)"/>
</clipPath>
</defs>
</svg>
