<svg width="25" height="25" viewBox="0 0 25 25" fill="none" xmlns="http://www.w3.org/2000/svg">
<g clip-path="url(#clip0_140_320)">
<path d="M22.6599 6.65495C21.8964 6.99264 21.0868 7.21442 20.2579 7.31295C21.1316 6.79038 21.7856 5.96796 22.0979 4.99895C21.2779 5.48695 20.3789 5.82895 19.4419 6.01395C18.8125 5.34053 17.9782 4.89391 17.0688 4.74353C16.1594 4.59316 15.2258 4.74744 14.4131 5.1824C13.6004 5.61737 12.9542 6.30863 12.575 7.14874C12.1957 7.98885 12.1046 8.93073 12.3159 9.82795C10.653 9.7446 9.02619 9.31247 7.54114 8.55961C6.0561 7.80676 4.74598 6.75 3.69586 5.45795C3.32415 6.0964 3.12881 6.82218 3.12986 7.56095C3.12986 9.01095 3.86786 10.292 4.98986 11.042C4.32586 11.021 3.67649 10.8417 3.09586 10.519V10.571C3.09606 11.5367 3.43022 12.4726 4.0417 13.22C4.65318 13.9675 5.50434 14.4804 6.45086 14.672C5.83447 14.839 5.18816 14.8636 4.56086 14.744C4.82772 15.5752 5.34786 16.3022 6.04845 16.8231C6.74903 17.344 7.59498 17.6327 8.46786 17.649C7.60034 18.3303 6.60703 18.8339 5.54474 19.1311C4.48244 19.4283 3.37198 19.5132 2.27686 19.381C4.18855 20.6104 6.41395 21.2631 8.68686 21.261C16.3799 21.261 20.5869 14.888 20.5869 9.36095C20.5869 9.18095 20.5819 8.99895 20.5739 8.82095C21.3927 8.22912 22.0995 7.49597 22.6609 6.65595L22.6599 6.65495Z" fill="white"/>
</g>
<defs>
<clipPath id="clip0_140_320">
<rect width="24" height="24" fill="white" transform="translate(0.498047 0.992188)"/>
</clipPath>
</defs>
</svg>
